<mxfile host="app.diagrams.net" agent="Mozilla/5.0 (Windows NT 10.0; Win64; x64) AppleWebKit/537.36 (KHTML, like Gecko) Chrome/138.0.0.0 Safari/537.36" version="28.0.7">
  <diagram name="AWS Architecture" id="aws">
    <mxGraphModel dx="1507" dy="661" grid="1" gridSize="10" guides="1" tooltips="1" connect="1" arrows="1" fold="1" page="1" pageScale="1" pageWidth="1169" pageHeight="827" math="0" shadow="0">
      <root>
        <mxCell id="0" />
        <mxCell id="1" parent="0" />
        <mxCell id="title" value="QuizXMentor - AWS Deployment Architecture" style="text;fontSize=20;fontStyle=1;align=center;" parent="1" vertex="1">
          <mxGeometry x="350" y="20" width="400" height="30" as="geometry" />
        </mxCell>
        <mxCell id="developer" value="&lt;div&gt;&lt;br&gt;&lt;/div&gt;&lt;div&gt;&lt;br&gt;&lt;/div&gt;&lt;div&gt;&lt;br&gt;&lt;/div&gt;Developer" style="shape=actor;whiteSpace=wrap;html=1;fillColor=#f8cecc;strokeColor=#b85450;" parent="1" vertex="1">
          <mxGeometry x="50" y="80" width="60" height="80" as="geometry" />
        </mxCell>
        <mxCell id="github" value="GitHub Repository&#xa;MentorBaba-CICD" style="rounded=1;whiteSpace=wrap;html=1;fillColor=#000000;strokeColor=#000000;fontColor=#ffffff;" parent="1" vertex="1">
          <mxGeometry x="200" y="90" width="150" height="60" as="geometry" />
        </mxCell>
        <mxCell id="webhook1" value="Git Push" style="endArrow=classic;html=1;rounded=0;" parent="1" source="developer" target="github" edge="1">
          <mxGeometry width="50" height="50" relative="1" as="geometry">
            <mxPoint x="120" y="120" as="sourcePoint" />
            <mxPoint x="170" y="70" as="targetPoint" />
          </mxGeometry>
        </mxCell>
        <mxCell id="awscloud" value="AWS Cloud" style="rounded=1;whiteSpace=wrap;html=1;fillColor=#ff9900;strokeColor=#ff9900;fontColor=#ffffff;fontSize=16;fontStyle=1;" parent="1" vertex="1">
          <mxGeometry x="450" y="70" width="650" height="40" as="geometry" />
        </mxCell>
        <mxCell id="ec2" value="EC2 Instance&#xa;43.204.141.56&#xa;Ubuntu Server" style="rounded=1;whiteSpace=wrap;html=1;fillColor=#ff9900;strokeColor=#d79b00;fontColor=#000000;" parent="1" vertex="1">
          <mxGeometry x="480" y="140" width="150" height="80" as="geometry" />
        </mxCell>
        <mxCell id="jenkins" value="Jenkins CI/CD&#xa;Pipeline" style="rounded=1;whiteSpace=wrap;html=1;fillColor=#4285f4;strokeColor=#1a73e8;fontColor=#ffffff;" parent="1" vertex="1">
          <mxGeometry x="480" y="250" width="150" height="60" as="geometry" />
        </mxCell>
        <mxCell id="docker" value="Docker Engine&#xa;Container Runtime" style="rounded=1;whiteSpace=wrap;html=1;fillColor=#0db7ed;strokeColor=#0db7ed;fontColor=#ffffff;" parent="1" vertex="1">
          <mxGeometry x="480" y="340" width="150" height="60" as="geometry" />
        </mxCell>
        <mxCell id="container" value="QuizXMentor Container&#xa;Flask App:5000&#xa;MySQL Database" style="rounded=1;whiteSpace=wrap;html=1;fillColor=#28a745;strokeColor=#28a745;fontColor=#ffffff;" parent="1" vertex="1">
          <mxGeometry x="480" y="430" width="150" height="80" as="geometry" />
        </mxCell>
        <mxCell id="sg" value="Security Group&#xa;Port 5000 (HTTP)&#xa;Port 22 (SSH)" style="rounded=1;whiteSpace=wrap;html=1;fillColor=#ff6b6b;strokeColor=#ff6b6b;fontColor=#ffffff;" parent="1" vertex="1">
          <mxGeometry x="680" y="140" width="130" height="80" as="geometry" />
        </mxCell>
        <mxCell id="igw" value="Internet Gateway" style="rounded=1;whiteSpace=wrap;html=1;fillColor=#17a2b8;strokeColor=#17a2b8;fontColor=#ffffff;" parent="1" vertex="1">
          <mxGeometry x="850" y="140" width="120" height="60" as="geometry" />
        </mxCell>
        <mxCell id="users" value="&lt;div&gt;&lt;font style=&quot;font-size: 8px;&quot;&gt;&lt;br&gt;&lt;/font&gt;&lt;/div&gt;&lt;font style=&quot;font-size: 8px;&quot;&gt;&lt;div&gt;&lt;font style=&quot;font-size: 8px;&quot;&gt;&lt;br&gt;&lt;/font&gt;&lt;/div&gt;End Users&lt;br&gt;Quiz Participants&lt;/font&gt;" style="shape=actor;whiteSpace=wrap;html=1;fillColor=#6f42c1;strokeColor=#6f42c1;fontColor=#ffffff;" parent="1" vertex="1">
          <mxGeometry x="1070" y="130" width="70" height="70" as="geometry" />
        </mxCell>
        <mxCell id="gmail" value="Gmail SMTP&#xa;Email Notifications&#xa;maithilisude19@gmail.com" style="rounded=1;whiteSpace=wrap;html=1;fillColor=#ea4335;strokeColor=#ea4335;fontColor=#ffffff;" parent="1" vertex="1">
          <mxGeometry x="680" y="250" width="160" height="80" as="geometry" />
        </mxCell>
        <mxCell id="webhook2" value="Webhook Trigger" style="endArrow=classic;html=1;rounded=0;strokeColor=#28a745;strokeWidth=2;" parent="1" source="github" target="jenkins" edge="1">
          <mxGeometry width="50" height="50" relative="1" as="geometry">
            <mxPoint x="360" y="120" as="sourcePoint" />
            <mxPoint x="470" y="280" as="targetPoint" />
          </mxGeometry>
        </mxCell>
        <mxCell id="deploy1" value="Build &amp; Deploy" style="endArrow=classic;html=1;rounded=0;" parent="1" source="jenkins" target="docker" edge="1">
          <mxGeometry width="50" height="50" relative="1" as="geometry">
            <mxPoint x="555" y="320" as="sourcePoint" />
            <mxPoint x="555" y="340" as="targetPoint" />
          </mxGeometry>
        </mxCell>
        <mxCell id="deploy2" value="Run Container" style="endArrow=classic;html=1;rounded=0;" parent="1" source="docker" target="container" edge="1">
          <mxGeometry width="50" height="50" relative="1" as="geometry">
            <mxPoint x="555" y="410" as="sourcePoint" />
            <mxPoint x="555" y="430" as="targetPoint" />
          </mxGeometry>
        </mxCell>
        <mxCell id="email" value="Email Notification" style="endArrow=classic;html=1;rounded=0;strokeColor=#ea4335;strokeWidth=2;" parent="1" source="jenkins" target="gmail" edge="1">
          <mxGeometry width="50" height="50" relative="1" as="geometry">
            <mxPoint x="630" y="280" as="sourcePoint" />
            <mxPoint x="680" y="290" as="targetPoint" />
          </mxGeometry>
        </mxCell>
        <mxCell id="access" value="HTTP Access&#xa;Port 5000" style="endArrow=classic;html=1;rounded=0;strokeColor=#6f42c1;strokeWidth=2;" parent="1" source="users" target="igw" edge="1">
          <mxGeometry width="50" height="50" relative="1" as="geometry">
            <mxPoint x="1040" y="180" as="sourcePoint" />
            <mxPoint x="980" y="170" as="targetPoint" />
          </mxGeometry>
        </mxCell>
        <mxCell id="traffic" value="Traffic Flow" style="endArrow=classic;html=1;rounded=0;" parent="1" source="igw" target="sg" edge="1">
          <mxGeometry width="50" height="50" relative="1" as="geometry">
            <mxPoint x="840" y="170" as="sourcePoint" />
            <mxPoint x="820" y="180" as="targetPoint" />
          </mxGeometry>
        </mxCell>
        <mxCell id="secure" value="Filtered Traffic" style="endArrow=classic;html=1;rounded=0;" parent="1" source="sg" target="ec2" edge="1">
          <mxGeometry width="50" height="50" relative="1" as="geometry">
            <mxPoint x="670" y="180" as="sourcePoint" />
            <mxPoint x="640" y="180" as="targetPoint" />
          </mxGeometry>
        </mxCell>
        <mxCell id="stages" value="Jenkins Pipeline Stages" style="rounded=1;whiteSpace=wrap;html=1;fillColor=#f8f9fa;strokeColor=#6c757d;fontSize=12;fontStyle=1;" parent="1" vertex="1">
          <mxGeometry x="50" y="250" width="300" height="30" as="geometry" />
        </mxCell>
        <mxCell id="stage1" value="1. Clone Repository" style="rounded=1;whiteSpace=wrap;html=1;fillColor=#d1ecf1;strokeColor=#bee5eb;" parent="1" vertex="1">
          <mxGeometry x="50" y="300" width="140" height="40" as="geometry" />
        </mxCell>
        <mxCell id="stage2" value="2. Build Docker Image" style="rounded=1;whiteSpace=wrap;html=1;fillColor=#d1ecf1;strokeColor=#bee5eb;" parent="1" vertex="1">
          <mxGeometry x="210" y="300" width="140" height="40" as="geometry" />
        </mxCell>
        <mxCell id="stage3" value="3. Stop Previous Container" style="rounded=1;whiteSpace=wrap;html=1;fillColor=#d1ecf1;strokeColor=#bee5eb;" parent="1" vertex="1">
          <mxGeometry x="50" y="360" width="140" height="40" as="geometry" />
        </mxCell>
        <mxCell id="stage4" value="4. Run New Container" style="rounded=1;whiteSpace=wrap;html=1;fillColor=#d1ecf1;strokeColor=#bee5eb;" parent="1" vertex="1">
          <mxGeometry x="210" y="360" width="140" height="40" as="geometry" />
        </mxCell>
        <mxCell id="stage5" value="5. Send Email Notification" style="rounded=1;whiteSpace=wrap;html=1;fillColor=#f8d7da;strokeColor=#f5c6cb;" parent="1" vertex="1">
          <mxGeometry x="50" y="420" width="300" height="40" as="geometry" />
        </mxCell>
        <mxCell id="services" value="AWS Services Used" style="rounded=1;whiteSpace=wrap;html=1;fillColor=#ff9900;strokeColor=#ff9900;fontColor=#ffffff;fontSize=12;fontStyle=1;" parent="1" vertex="1">
          <mxGeometry x="50" y="500" width="300" height="30" as="geometry" />
        </mxCell>
        <mxCell id="ec2service" value="✓ EC2 (Compute)" style="text;html=1;strokeColor=none;fillColor=none;align=left;verticalAlign=middle;whiteSpace=wrap;rounded=0;" parent="1" vertex="1">
          <mxGeometry x="60" y="540" width="120" height="20" as="geometry" />
        </mxCell>
        <mxCell id="vpcservice" value="✓ VPC (Networking)" style="text;html=1;strokeColor=none;fillColor=none;align=left;verticalAlign=middle;whiteSpace=wrap;rounded=0;" parent="1" vertex="1">
          <mxGeometry x="60" y="560" width="120" height="20" as="geometry" />
        </mxCell>
        <mxCell id="sgservice" value="✓ Security Groups" style="text;html=1;strokeColor=none;fillColor=none;align=left;verticalAlign=middle;whiteSpace=wrap;rounded=0;" parent="1" vertex="1">
          <mxGeometry x="60" y="580" width="120" height="20" as="geometry" />
        </mxCell>
        <mxCell id="igwservice" value="✓ Internet Gateway" style="text;html=1;strokeColor=none;fillColor=none;align=left;verticalAlign=middle;whiteSpace=wrap;rounded=0;" parent="1" vertex="1">
          <mxGeometry x="200" y="540" width="120" height="20" as="geometry" />
        </mxCell>
        <mxCell id="eipservice" value="✓ Elastic IP" style="text;html=1;strokeColor=none;fillColor=none;align=left;verticalAlign=middle;whiteSpace=wrap;rounded=0;" parent="1" vertex="1">
          <mxGeometry x="200" y="560" width="120" height="20" as="geometry" />
        </mxCell>
        <mxCell id="techstack" value="Technology Stack" style="rounded=1;whiteSpace=wrap;html=1;fillColor=#28a745;strokeColor=#28a745;fontColor=#ffffff;fontSize=12;fontStyle=1;" parent="1" vertex="1">
          <mxGeometry x="680" y="360" width="290" height="30" as="geometry" />
        </mxCell>
        <mxCell id="flask" value="✓ Flask (Python Web Framework)" style="text;html=1;strokeColor=none;fillColor=none;align=left;verticalAlign=middle;whiteSpace=wrap;rounded=0;" parent="1" vertex="1">
          <mxGeometry x="690" y="400" width="200" height="20" as="geometry" />
        </mxCell>
        <mxCell id="mysql" value="✓ MySQL (Database)" style="text;html=1;strokeColor=none;fillColor=none;align=left;verticalAlign=middle;whiteSpace=wrap;rounded=0;" parent="1" vertex="1">
          <mxGeometry x="690" y="420" width="200" height="20" as="geometry" />
        </mxCell>
        <mxCell id="dockertech" value="✓ Docker (Containerization)" style="text;html=1;strokeColor=none;fillColor=none;align=left;verticalAlign=middle;whiteSpace=wrap;rounded=0;" parent="1" vertex="1">
          <mxGeometry x="690" y="440" width="200" height="20" as="geometry" />
        </mxCell>
        <mxCell id="jenkinstech" value="✓ Jenkins (CI/CD Pipeline)" style="text;html=1;strokeColor=none;fillColor=none;align=left;verticalAlign=middle;whiteSpace=wrap;rounded=0;" parent="1" vertex="1">
          <mxGeometry x="690" y="460" width="200" height="20" as="geometry" />
        </mxCell>
        <mxCell id="githubtech" value="✓ GitHub (Source Control)" style="text;html=1;strokeColor=none;fillColor=none;align=left;verticalAlign=middle;whiteSpace=wrap;rounded=0;" parent="1" vertex="1">
          <mxGeometry x="690" y="480" width="200" height="20" as="geometry" />
        </mxCell>
        <mxCell id="url" value="Application URL: http://43.204.141.56:5000" style="rounded=1;whiteSpace=wrap;html=1;fillColor=#17a2b8;strokeColor=#17a2b8;fontColor=#ffffff;fontSize=12;fontStyle=1;" parent="1" vertex="1">
          <mxGeometry x="680" y="520" width="290" height="40" as="geometry" />
        </mxCell>
      </root>
    </mxGraphModel>
  </diagram>
</mxfile>
